<svg width="18" height="12" xmlns="http://www.w3.org/2000/svg"><g fill="#000" fill-rule="nonzero"><path d="M.424 1.537c3.917.106 7.782 0 11.647-.689.688-.105 3.388-.74 4.023-.105.741.74.635 2.54.688 3.547.106 1.006.212 2.011.265 3.017.053.477.106 1.006.159 1.483.053.423.265 1.164.159 1.482-.318.847-2.17.476-2.912.53-1.006 0-2.065.052-3.07.052-2.065.053-4.077.106-6.142.106-.9 0-2.17.265-3.07.053-.636.159-1.006-.159-1.06-1.006 0-.159 0-.317-.052-.53-.106-.476-.053-1.058-.106-1.534C.794 5.719.688 3.496.529 1.272.53.954 0 .954 0 1.272c.159 2.753.37 5.453.53 8.206.052.53-.106 1.535.423 1.959.635.423 2.012.106 2.7.106l8.206-.16c1.376-.052 2.753-.052 4.076-.105.477 0 1.377.159 1.747-.265.53-.582.053-2.065 0-2.753-.106-1.323-.264-2.647-.37-4.023-.106-.953.053-2.489-.37-3.389-.266-.582-.636-.635-1.218-.74-2.436-.424-5.03.529-7.465.74-2.647.265-5.294.212-7.941.106-.265.053-.265.583.106.583z"/><path d="M.318 1.272C.529 5.084 5.929 7.148 9 7.89c.318.106.476-.424.159-.53-1.694-.423-3.283-1.059-4.765-1.959C2.86 4.448.953 3.178.847 1.22c0-.265-.53-.265-.53.053z"/><path d="M9.053 7.837c1.323.264 2.276-1.218 3.07-2.012l4.66-4.659c.264-.265-.16-.635-.371-.37L13.076 4.13l-1.482 1.482c-.582.583-1.482 1.853-2.382 1.694-.37-.053-.477.424-.16.53z"/></g></svg>
