<svg width="111" height="32" xmlns="http://www.w3.org/2000/svg"><path d="M25.398 7.161c-6.688 2.011-13.177 4.525-19.366 7.643-3.494 1.81-8.985 6.436-4.093 10.056 2.096 1.61 5.091 2.112 7.487 2.816 3.394.905 6.788 1.71 10.282 2.413C26.696 31.397 33.684 32 40.772 32c15.872 0 31.745-3.218 46.32-9.453.598-.201.1-1.106-.5-.905C62.135 32.101 34.382 33.81 8.827 26.47c-2.795-.804-9.983-2.313-7.287-6.939 1.597-2.815 5.39-4.123 8.186-5.43 5.99-2.816 12.178-5.028 18.468-6.738 12.478-3.52 25.455-5.128 38.433-5.832 14.674-.805 29.349-.403 43.924 0 .599 0 .599-1.006 0-1.006C82.2-.381 52.95-1.085 25.398 7.161z" fill="#C71617" fill-rule="nonzero"/></svg>
