<svg width="53" height="85" xmlns="http://www.w3.org/2000/svg"><g fill="#000" fill-rule="nonzero"><path d="M24.007 24.449c.88 19.734 2.15 39.468 4.008 59.102.098.599 1.076.599.978 0-1.76-19.634-3.129-39.368-4.008-59.102-.098-.599-1.076-.599-.978 0z"/><path d="M22.125 80.015c1.669 1.648 3.338 3.193 5.007 4.841a.556.556 0 0 0 .835-.103c1.356-2.163 2.399-4.532 3.025-7.107.104-.618-.835-.927-1.043-.31-.626 2.473-1.565 4.74-2.921 6.902.313 0 .521-.103.834-.103-1.669-1.648-3.338-3.193-5.007-4.841-.417-.515-1.148.206-.73.721zM5.163 6.028C2.69 6.609-.967 8.16.43 11.067c.538 1.163 1.506 1.163 2.69 1.357 1.72.193 3.226 1.453 2.689 3.1-.538 1.939-3.442 2.133-4.733.582-.43-.484-1.398 0-.968.485 1.936 2.228 6.669 1.84 6.884-1.357.107-1.454-.86-2.907-2.367-3.489-1.183-.484-2.689-.097-3.334-1.356C.108 8.45 4.195 7.288 5.378 6.997c.753-.29.43-1.163-.215-.97zM15.304 5.002c-3.577-.102-6.558 4.186-4.77 7.555 1.69 2.961 6.161 3.268 8.347.715.398-.51-.298-1.225-.695-.715-1.59 1.94-5.068 1.94-6.558-.204-1.789-2.655.795-6.432 3.676-6.33.596 0 .596-1.021 0-1.021zM21 5.482a51.36 51.36 0 0 0 1.087 9.149c.181.623.997.416.906-.312a37.08 37.08 0 0 1-1.087-8.941c0-.52-.906-.52-.906.104zM22.866 5.235c.848-.697 1.885-.1 1.885.896 0 .995-.848 1.493-1.79 1.294-.566-.2-.755.597-.378.896 1.885 1.493 3.865 2.986 5.75 4.58.472.397.943-.499.472-.897-1.886-1.493-3.865-2.986-5.75-4.58-.095.3-.283.598-.378.897 1.509.498 3.488-.896 3.017-2.688-.377-1.692-2.451-2.09-3.582-1.095-.377.398.283 1.095.754.697zM35.896 1.504c-2.549-.705-4.078 1.61-4.588 3.724-.408 1.913-.815 4.933 1.631 5.638 4.893 1.309 6.626-7.349 3.466-9.765-.51-.403-1.02.503-.51.906 2.243 1.61 1.02 7.752-1.936 7.953-2.345.1-1.937-2.416-1.733-3.926.306-1.712 1.121-4.128 3.364-3.524.713.202.917-.805.306-1.006zM40.063.51v4.273c0 .994-.192 2.187.095 3.081.48 1.69 3.164.994 4.41.994.576 0 .576-.994 0-.994-.766 0-1.63.1-2.3 0-.48-.1-.863 0-1.15-.596-.193-.398 0-1.093 0-1.49V.608c-.097-.795-1.055-.795-1.055-.099zM47.04.528c-.097 1.177 0 2.452.098 3.629.097.98.194 2.256.778 3.138.972 1.57 3.501.098 4.766-.392.583-.196.292-1.177-.292-.98-.68.195-1.362.49-2.043.686-.389.098-1.264.392-1.653.098-.195-.196-.292-.883-.39-1.177-.388-1.667-.486-3.335-.388-5.1.097-.589-.876-.589-.876.098z"/></g></svg>
